<svg width="118" height="109" viewBox="0 0 118 109" fill="none" xmlns="http://www.w3.org/2000/svg">
<path d="M93.4167 77.2083H103.25L106.397 65.6725C107.577 61.317 107.577 56.7618 106.397 52.4108L101.136 33.0179C100.336 30.0724 98.4936 27.4582 95.9014 25.5904C93.3093 23.7225 90.1159 22.7082 86.8283 22.7083H19.6667C17.0587 22.7083 14.5576 23.6653 12.7135 25.3688C10.8694 27.0722 9.83334 29.3826 9.83334 31.7917V77.2083H19.6667" stroke="black" stroke-width="2" stroke-linecap="round" stroke-linejoin="round"/>
<path d="M68.8333 77.2083H44.25" stroke="black" stroke-width="2" stroke-linecap="round" stroke-linejoin="round"/>
<path d="M31.9583 90.8333C38.7468 90.8333 44.25 85.7499 44.25 79.4792C44.25 73.2084 38.7468 68.125 31.9583 68.125C25.1698 68.125 19.6667 73.2084 19.6667 79.4792C19.6667 85.7499 25.1698 90.8333 31.9583 90.8333Z" stroke="black" stroke-width="2" stroke-linecap="round" stroke-linejoin="round"/>
<path d="M81.125 90.8333C87.9135 90.8333 93.4167 85.7499 93.4167 79.4792C93.4167 73.2084 87.9135 68.125 81.125 68.125C74.3365 68.125 68.8333 73.2084 68.8333 79.4792C68.8333 85.7499 74.3365 90.8333 81.125 90.8333Z" stroke="black" stroke-width="2" stroke-linecap="round" stroke-linejoin="round"/>
</svg>
