<?xml version="1.0" encoding="UTF-8"?>
<svg xmlns="http://www.w3.org/2000/svg" xmlns:xlink="http://www.w3.org/1999/xlink" width="117px" height="109px" viewBox="0 0 117 109" version="1.1">
<g id="surface1">
<path style=" stroke:none;fill-rule:nonzero;fill:rgb(0%,0%,0%);fill-opacity:1;" d="M 77.636719 26.210938 C 77.636719 35.691406 69.386719 43.378906 59.210938 43.378906 C 49.035156 43.378906 40.785156 35.691406 40.785156 26.210938 C 40.785156 16.730469 49.035156 9.042969 59.210938 9.042969 C 69.386719 9.042969 77.636719 16.730469 77.636719 26.210938 Z M 77.636719 26.210938 "/>
<path style=" stroke:none;fill-rule:nonzero;fill:rgb(0%,0%,0%);fill-opacity:1;" d="M 113.605469 21.523438 C 109.546875 18.3125 103.488281 18.785156 100.058594 22.558594 L 72.933594 52.339844 C 69.433594 49.027344 64.59375 46.960938 59.210938 46.960938 C 53.4375 46.960938 48.320312 49.378906 44.796875 53.132812 L 16.949219 22.554688 C 13.5 18.785156 7.445312 18.320312 3.390625 21.519531 C -0.65625 24.722656 -1.152344 30.375 2.285156 34.148438 L 38.480469 73.878906 C 38.933594 74.378906 39.449219 74.816406 39.988281 75.203125 L 39.988281 99.957031 L 78.445312 99.957031 L 78.445312 73.949219 C 78.472656 73.921875 78.5 73.90625 78.53125 73.878906 L 114.714844 34.144531 C 118.148438 30.378906 117.660156 24.726562 113.605469 21.523438 Z M 72.289062 69.269531 C 72.171875 69.609375 72.042969 70.179688 71.828125 70.722656 C 71.648438 71.273438 71.433594 71.9375 71.179688 72.703125 C 70.953125 73.445312 70.6875 74.207031 70.410156 74.960938 C 70.136719 75.734375 69.847656 76.566406 69.507812 77.320312 C 69.171875 78.085938 68.828125 78.929688 68.40625 79.664062 C 67.605469 81.203125 66.601562 82.671875 65.410156 84.0625 C 64.828125 84.78125 64.152344 85.414062 63.476562 86.082031 C 62.800781 86.734375 62.042969 87.335938 61.28125 87.929688 C 60.511719 88.496094 59.714844 89.046875 58.875 89.546875 C 58.042969 90.035156 57.214844 90.5 56.375 90.910156 C 55.539062 91.320312 54.714844 91.683594 53.945312 91.996094 C 53.421875 92.214844 52.902344 92.398438 52.425781 92.554688 L 50.742188 92.566406 C 50.839844 92.296875 50.941406 92.023438 51.050781 91.730469 C 51.792969 89.820312 52.921875 87.300781 54.300781 84.910156 C 54.988281 83.707031 55.765625 82.558594 56.535156 81.5 C 56.949219 80.992188 57.34375 80.503906 57.71875 80.039062 C 58.132812 79.589844 58.523438 79.171875 58.890625 78.785156 C 59.285156 78.4375 59.640625 78.109375 59.960938 77.824219 C 60.277344 77.523438 60.613281 77.328125 60.855469 77.132812 C 61.371094 76.773438 61.664062 76.566406 61.664062 76.566406 C 61.664062 76.566406 61.355469 76.75 60.816406 77.082031 C 60.542969 77.257812 60.199219 77.421875 59.863281 77.703125 C 59.515625 77.972656 59.121094 78.265625 58.691406 78.601562 C 58.285156 78.960938 57.851562 79.355469 57.402344 79.769531 C 56.976562 80.222656 56.527344 80.6875 56.066406 81.175781 C 55.195312 82.1875 54.304688 83.304688 53.507812 84.472656 C 51.890625 86.808594 50.53125 89.289062 49.597656 91.1875 C 49.421875 91.570312 49.25 91.925781 49.097656 92.25 C 48.996094 92.011719 48.882812 91.746094 48.796875 91.460938 C 48.597656 90.859375 48.351562 90.113281 48.195312 89.296875 C 48.035156 88.472656 47.929688 87.578125 47.886719 86.617188 C 47.839844 84.710938 48.074219 82.558594 48.816406 80.449219 C 49.152344 79.382812 49.652344 78.332031 50.230469 77.308594 C 50.796875 76.285156 51.535156 75.308594 52.292969 74.371094 C 53.109375 73.441406 54 72.578125 54.9375 71.78125 C 55.945312 71.007812 56.949219 70.292969 58.054688 69.710938 C 59.191406 69.148438 60.261719 68.628906 61.4375 68.300781 C 62.617188 67.964844 63.71875 67.703125 64.804688 67.574219 C 65.921875 67.488281 66.953125 67.472656 67.855469 67.523438 C 68.761719 67.554688 69.65625 67.808594 70.320312 67.960938 C 70.976562 68.089844 71.53125 68.335938 71.882812 68.457031 C 72.234375 68.589844 72.4375 68.695312 72.4375 68.695312 C 72.4375 68.695312 72.394531 68.894531 72.289062 69.269531 Z M 72.289062 69.269531 "/>
</g>
</svg>
