<?xml version="1.0" encoding="UTF-8"?>
<svg xmlns="http://www.w3.org/2000/svg" xmlns:xlink="http://www.w3.org/1999/xlink" width="117px" height="109px" viewBox="0 0 117 109" version="1.1">
<g id="surface1">
<path style=" stroke:none;fill-rule:nonzero;fill:rgb(100%,100%,100%);fill-opacity:1;" d="M 14.003906 60.273438 C 1.484375 47.734375 -0.261719 25.65625 12.257812 13.117188 C 24.777344 0.578125 45.078125 0.578125 57.597656 13.117188 L 59.128906 14.777344 C 71.90625 4.183594 92.128906 3.328125 103.914062 15.128906 C 116.433594 27.667969 116.433594 47.996094 103.914062 60.535156 L 103.335938 60.859375 C 103.671875 63.085938 102.957031 65.453125 101.242188 67.171875 C 98.421875 69.992188 93.851562 69.992188 91.03125 67.167969 L 91.058594 67.265625 C 93.875 70.089844 93.753906 74.667969 90.933594 77.492188 C 88.113281 80.316406 83.542969 80.316406 80.722656 77.492188 L 80.75 77.589844 C 83.570312 80.414062 83.445312 84.992188 80.625 87.816406 C 77.808594 90.636719 73.234375 90.636719 70.417969 87.816406 L 68.433594 85.84375 C 71.253906 88.667969 71.253906 93.246094 68.433594 96.066406 L 61.269531 103.242188 C 58.449219 106.066406 53.878906 105.941406 51.058594 103.117188 C 48.238281 100.296875 48.238281 95.71875 51.058594 92.894531 L 50.960938 92.917969 C 48.140625 95.742188 43.570312 95.621094 40.75 92.796875 C 37.933594 89.972656 37.933594 85.394531 40.75 82.570312 L 40.65625 82.597656 C 37.835938 85.421875 33.265625 85.296875 30.445312 82.472656 C 27.625 79.652344 27.625 75.074219 30.445312 72.25 L 30.347656 72.277344 C 27.527344 75.097656 22.957031 74.976562 20.136719 72.152344 C 18.007812 70.019531 17.484375 66.882812 18.574219 64.257812 Z M 14.003906 60.273438 "/>
<path style="fill:none;stroke-width:180;stroke-linecap:round;stroke-linejoin:miter;stroke:rgb(0%,0%,0%);stroke-opacity:1;stroke-miterlimit:4;" d="M 2238.17074 210.028096 C 2135.144965 107.008888 1968.19184 111.568521 1865.166066 214.587729 C 1762.140291 317.46445 1762.140291 484.461009 1865.166066 587.480218 L 2126.868657 849.231651 C 2229.894431 952.25086 2396.847556 947.691227 2499.873331 844.672018 C 2602.899105 741.65281 2602.899105 574.65625 2499.873331 471.77953 Z M 1861.598691 586.625287 C 1758.572917 483.606078 1591.619792 488.023222 1488.594017 591.042431 C 1385.710938 694.06164 1385.710938 861.0582 1488.594017 964.077408 L 1750.296608 1225.686353 C 1853.322382 1328.705562 2020.418202 1324.145929 2123.301282 1221.269209 C 2226.327057 1118.25 2226.327057 951.25344 2123.301282 848.234232 Z M 1485.169338 963.079989 C 1382.143563 860.06078 1215.190438 864.620413 1112.164663 967.639622 C 1009.138889 1070.516342 1009.138889 1237.512901 1112.164663 1340.53211 L 1373.867254 1602.283544 C 1476.893029 1705.302752 1643.846154 1700.743119 1746.729233 1597.723911 C 1849.755008 1494.704702 1849.755008 1327.708142 1746.729233 1224.688933 Z M 1108.597289 1339.53469 C 1005.571514 1236.65797 838.618389 1241.075115 735.592615 1344.094323 C 632.56684 1447.113532 632.56684 1614.110092 735.592615 1717.1293 L 997.295206 1978.738245 C 1100.32098 2081.757454 1267.274105 2077.197821 1370.29988 1974.321101 C 1473.325654 1871.301892 1473.325654 1704.305333 1370.29988 1601.286124 Z M 2539.39984 3059.371273 L 2088.198317 2607.825115 C 1869.01883 2384.97305 1524.981237 2384.97305 1312.793803 2597.280963 L 2077.924279 3362.444381 M 2075.783854 3360.307053 C 2533.263956 3817.695241 3338.634415 3881.530103 3795.971822 3424.141915 C 4253.309228 2966.753727 4253.309228 2225.243406 3795.971822 1767.855218 M 2546.819979 3054.81164 L 3702.792001 1898.802179 C 3805.817775 1795.78297 3801.394231 1628.786411 3698.368456 1525.767202 C 3595.342682 1422.890482 3428.389557 1422.890482 3325.363782 1525.90969 M 2547.676149 2300.904817 L 3326.362647 1522.347477 C 3429.245726 1419.328268 3424.822182 1252.331709 3321.796408 1149.3125 C 3218.770633 1046.293291 3051.817508 1046.293291 2948.791733 1149.3125 L 2170.24793 1927.869839 M 2949.790598 1145.750287 C 3052.816373 1042.731078 3048.250134 875.734518 2945.224359 772.71531 C 2842.341279 669.838589 2675.245459 669.838589 2572.36238 772.71531 M 617.441173 1671.675459 L 511.561498 1777.40195 C 54.224092 2234.790138 -9.560564 3040.135321 447.776843 3497.523509 C 905.114249 3954.911697 1646.700053 3954.911697 2104.03746 3497.523509 L 2136.14383 3465.178612 " transform="matrix(0.0273748,0,0,-0.0274145,0,109)"/>
</g>
</svg>
